<svg viewBox="0 0 1600 900" xmlns="http://www.w3.org/2000/svg">
  <defs>
    <linearGradient id="fadeVertical" x1="0%" y1="0%" x2="0%" y2="100%">
      <stop offset="0%" stop-color="#94a3b8" stop-opacity="0.18"/>
      <stop offset="60%" stop-color="#94a3b8" stop-opacity="0.08"/>
      <stop offset="100%" stop-color="#94a3b8" stop-opacity="0.02"/>
    </linearGradient>
  </defs>

  <g stroke="url(#fadeVertical)" stroke-width="1">
    <path d="M0 80 H1600"/><path d="M0 160 H1600"/><path d="M0 240 H1600"/><path d="M0 320 H1600"/>
    <path d="M0 400 H1600"/><path d="M0 480 H1600"/><path d="M0 560 H1600"/><path d="M0 640 H1600"/>
    <path d="M0 720 H1600"/><path d="M0 800 H1600"/>

    <path d="M120 0 V900"/><path d="M240 0 V900"/><path d="M360 0 V900"/><path d="M480 0 V900"/>
    <path d="M600 0 V900"/><path d="M720 0 V900"/><path d="M840 0 V900"/><path d="M960 0 V900"/>
    <path d="M1080 0 V900"/><path d="M1200 0 V900"/><path d="M1320 0 V900"/><path d="M1440 0 V900"/>
  </g>
</svg>
