<svg xmlns="http://www.w3.org/2000/svg" viewBox="0 0 1600 900" fill="none">
  <g fill="#9ecfff" opacity="0.5">
    <circle cx="210" cy="250" r="2.6"/>
    <circle cx="238" cy="237" r="2.2"/>
    <circle cx="266" cy="247" r="2.4"/>
    <circle cx="290" cy="232" r="2.1"/>
    <circle cx="320" cy="240" r="2.6"/>
    <circle cx="350" cy="226" r="2.3"/>
    <circle cx="375" cy="236" r="2.1"/>
    <circle cx="402" cy="250" r="2.5"/>
    <circle cx="430" cy="244" r="2.2"/>
    <circle cx="456" cy="260" r="2.4"/>
    <circle cx="478" cy="282" r="2.3"/>
    <circle cx="452" cy="292" r="2.1"/>
    <circle cx="426" cy="300" r="2.2"/>
    <circle cx="398" cy="290" r="2.6"/>
    <circle cx="370" cy="278" r="2.2"/>
    <circle cx="344" cy="272" r="2.1"/>
    <circle cx="318" cy="286" r="2.5"/>
    <circle cx="292" cy="298" r="2.3"/>
    <circle cx="268" cy="288" r="2.2"/>
    <circle cx="246" cy="274" r="2.3"/>
    <circle cx="224" cy="266" r="2.1"/>
    <circle cx="206" cy="290" r="2.2"/>

    <circle cx="670" cy="208" r="2.4"/>
    <circle cx="698" cy="196" r="2.2"/>
    <circle cx="730" cy="202" r="2.6"/>
    <circle cx="760" cy="188" r="2.3"/>
    <circle cx="792" cy="194" r="2.5"/>
    <circle cx="824" cy="206" r="2.2"/>
    <circle cx="858" cy="198" r="2.4"/>
    <circle cx="888" cy="210" r="2.1"/>
    <circle cx="920" cy="224" r="2.6"/>
    <circle cx="954" cy="232" r="2.3"/>
    <circle cx="988" cy="228" r="2.5"/>
    <circle cx="1020" cy="242" r="2.2"/>
    <circle cx="1052" cy="254" r="2.4"/>
    <circle cx="1080" cy="270" r="2.2"/>
    <circle cx="1104" cy="286" r="2.5"/>
    <circle cx="1078" cy="304" r="2.2"/>
    <circle cx="1046" cy="306" r="2.4"/>
    <circle cx="1010" cy="300" r="2.1"/>
    <circle cx="974" cy="290" r="2.6"/>
    <circle cx="940" cy="284" r="2.2"/>
    <circle cx="908" cy="278" r="2.3"/>
    <circle cx="874" cy="286" r="2.1"/>
    <circle cx="840" cy="296" r="2.4"/>
    <circle cx="810" cy="308" r="2.2"/>
    <circle cx="780" cy="316" r="2.5"/>
    <circle cx="748" cy="304" r="2.3"/>
    <circle cx="716" cy="294" r="2.1"/>
    <circle cx="684" cy="284" r="2.2"/>
    <circle cx="654" cy="270" r="2.4"/>
    <circle cx="630" cy="248" r="2.2"/>

    <circle cx="990" cy="358" r="2.2"/>
    <circle cx="1020" cy="346" r="2.4"/>
    <circle cx="1052" cy="354" r="2.1"/>
    <circle cx="1086" cy="364" r="2.5"/>
    <circle cx="1118" cy="378" r="2.2"/>
    <circle cx="1148" cy="396" r="2.4"/>
    <circle cx="1120" cy="410" r="2.1"/>
    <circle cx="1088" cy="404" r="2.5"/>
    <circle cx="1054" cy="394" r="2.2"/>
    <circle cx="1022" cy="386" r="2.3"/>
    <circle cx="992" cy="374" r="2.2"/>
    <circle cx="970" cy="392" r="2.1"/>
    <circle cx="984" cy="418" r="2.5"/>
    <circle cx="1008" cy="440" r="2.3"/>
    <circle cx="1036" cy="458" r="2.2"/>
    <circle cx="1062" cy="478" r="2.4"/>

    <circle cx="1180" cy="278" r="2.3"/>
    <circle cx="1212" cy="266" r="2.5"/>
    <circle cx="1248" cy="272" r="2.2"/>
    <circle cx="1280" cy="286" r="2.4"/>
    <circle cx="1310" cy="304" r="2.2"/>
    <circle cx="1336" cy="320" r="2.3"/>
    <circle cx="1364" cy="338" r="2.1"/>
    <circle cx="1392" cy="350" r="2.4"/>
    <circle cx="1420" cy="364" r="2.2"/>
    <circle cx="1450" cy="384" r="2.5"/>
    <circle cx="1424" cy="404" r="2.2"/>
    <circle cx="1392" cy="408" r="2.3"/>
    <circle cx="1360" cy="400" r="2.1"/>
    <circle cx="1326" cy="390" r="2.4"/>
    <circle cx="1296" cy="378" r="2.2"/>
    <circle cx="1268" cy="364" r="2.5"/>
    <circle cx="1242" cy="348" r="2.3"/>
    <circle cx="1212" cy="336" r="2.2"/>
    <circle cx="1184" cy="322" r="2.1"/>
  </g>
</svg>
